<svg id="Layer_1" data-name="Layer 1" xmlns="http://www.w3.org/2000/svg" viewBox="0 0 247.6 96.81"><defs><style>.cls-1{fill:#492f91;}</style></defs><title>Department_Logo [Recovered]</title><path class="cls-1" d="M70.22,50.37h5.7q4.89,0,4.89,3.34a4.47,4.47,0,0,1-1.71,3.73,7.63,7.63,0,0,1-4.8,1.33H67.62A9.06,9.06,0,0,1,62,57.24a5.21,5.21,0,0,1-2-4.37,15.56,15.56,0,0,1,1.48-5.35l9-21.16-6.78,7.28c-1.62,1.75-3.15,2.63-4.61,2.63q-2.84,0-3.69-3.9l-1-4.36L45.86,49.17A128,128,0,0,1,39.11,64a24.36,24.36,0,0,1-6,6.81,19.48,19.48,0,0,1-12.27,4.14,16.14,16.14,0,0,1-12-4.65q-4.61-4.67-4.6-12.15a24,24,0,0,1,7.24-17.26,29.21,29.21,0,0,1,9.74-6.42A29.57,29.57,0,0,1,32.71,32a7.79,7.79,0,0,1,4.61,1.23A3.82,3.82,0,0,1,39,36.52,4.12,4.12,0,0,1,37.21,40a8.84,8.84,0,0,1-4.08,1,26.72,26.72,0,0,0-11.28,3.2,16.4,16.4,0,0,0-5.64,5.59,13.66,13.66,0,0,0-2.1,7.21,9.17,9.17,0,0,0,2,6.31,7.08,7.08,0,0,0,5.59,2.3A9.49,9.49,0,0,0,29.14,62q3.15-3.63,6.91-12.85L50,14.83q1.83-4.54,4.92-4.54A4,4,0,0,1,58,11.56,11,11,0,0,1,60,16l2.14,8.08L72.72,13.7q3.48-3.4,6.5-3.41a5.19,5.19,0,0,1,3.57,1.29,4,4,0,0,1,1.46,3.11,6.84,6.84,0,0,1-.56,2.53l-.81,2Z" transform="translate(-4.24 -2.59)"/><path class="cls-1" d="M101.18,58.76l3.23,4.08,1.86,2.25q5.42,6.68,5.42,14.13a18.67,18.67,0,0,1-4.78,12.69q-6.54,7.5-17.12,7.49-8.21,0-13.43-5a17.14,17.14,0,0,1-5.24-12.92q0-9.64,8.15-16.07Q83.6,62,87.25,62a4.41,4.41,0,0,1,3.1,1.09,3.62,3.62,0,0,1,1.19,2.81q0,2.33-2.74,4L86,71.59a12.23,12.23,0,0,0-4,4.22,10.39,10.39,0,0,0-1.62,5.35,9.15,9.15,0,0,0,2.83,6.9,9.93,9.93,0,0,0,7.19,2.73,11.36,11.36,0,0,0,8.37-3.61,11.72,11.72,0,0,0,3.55-8.49,11.08,11.08,0,0,0-1.45-5.62,53.5,53.5,0,0,0-6.22-7.84,32.82,32.82,0,0,1-4.78-6.47H80.33c-3.24,0-4.85-1.11-4.85-3.34a4.46,4.46,0,0,1,1.7-3.74A7.7,7.7,0,0,1,82,50.36h6a16.42,16.42,0,0,1,6.37-11.52,21,21,0,0,1,13.57-4.55,14.17,14.17,0,0,1,9.68,3.27A10.72,10.72,0,0,1,121.36,46a11.78,11.78,0,0,1-6,10.62q-3.37,2.12-10.72,2.11ZM97,50.36h8.44q7.13,0,7.13-4.15a3,3,0,0,0-1.46-2.6,6.78,6.78,0,0,0-3.88-1A11.18,11.18,0,0,0,100.28,45,7.41,7.41,0,0,0,97,50.36Z" transform="translate(-4.24 -2.59)"/><path d="M99.76,29.8h2.57c2,0,3,.69,3,2.06a2.64,2.64,0,0,1-1.06,2.24,4.65,4.65,0,0,1-2.9.81h-3a2.74,2.74,0,0,1-2.75-1.57,5.18,5.18,0,0,1-3.39,1.57H89.51a5.23,5.23,0,0,1-4.16-1.84,7.16,7.16,0,0,1-1.58-4.82,11.91,11.91,0,0,1,3.11-8,9.19,9.19,0,0,1,7-3.55,4.87,4.87,0,0,1,4.38,2.09A3.55,3.55,0,0,1,101.35,17a2.39,2.39,0,0,1,1.72.66,2.12,2.12,0,0,1,.69,1.61,4.24,4.24,0,0,1-.37,1.57l-.26.64Zm-8.51.12h.58a2.49,2.49,0,0,0,2.56-1.57L96,24.29A3.61,3.61,0,0,0,96.36,23a1.38,1.38,0,0,0-.62-1.11,2.42,2.42,0,0,0-1.49-.46,4.44,4.44,0,0,0-3.33,2A6.47,6.47,0,0,0,89.3,27.5C89.3,29.11,90,29.92,91.25,29.92Z" transform="translate(-4.24 -2.59)"/><path d="M117.9,17h.72c2,0,3,.69,3,2.09a2.63,2.63,0,0,1-1,2.22,4.76,4.76,0,0,1-2.91.8h-1.71l-3.14,7.71h2.62c2,0,3,.7,3,2.09a2.64,2.64,0,0,1-1,2.22,4.74,4.74,0,0,1-2.92.8h-4.2a4.42,4.42,0,0,1-2.82-.82,2.67,2.67,0,0,1-1-2.23,5.22,5.22,0,0,1,.42-1.92l.44-1L110,22.09h-.35c-1.75,0-2.63-.68-2.63-2a2.69,2.69,0,0,1,1-2.26A4.62,4.62,0,0,1,111,17h1.08l1.24-3.07.26-.63A3.66,3.66,0,0,1,117,10.67a2.34,2.34,0,0,1,1.65.65,2.06,2.06,0,0,1,.69,1.56,5.76,5.76,0,0,1-.61,2.25Z" transform="translate(-4.24 -2.59)"/><path d="M131.89,18a9.09,9.09,0,0,1,4.05-1.34,5.44,5.44,0,0,1,3.7,1.26,4,4,0,0,1,1.44,3.19,6.73,6.73,0,0,1-.57,2.56l-2.46,6.14h2.7c2,0,2.95.7,2.95,2.09a2.64,2.64,0,0,1-1,2.22,4.74,4.74,0,0,1-2.92.8H135a3.79,3.79,0,0,1-2.52-.86,2.64,2.64,0,0,1-1-2.09A5.93,5.93,0,0,1,132,29.8l2.16-5.3a4.7,4.7,0,0,0,.39-1.52c0-.89-.59-1.34-1.78-1.34q-2.38,0-4,4.08l-2.62,6.45c-.83,2-2.06,3.07-3.68,3.07a2.4,2.4,0,0,1-1.64-.61,1.9,1.9,0,0,1-.68-1.48,4.23,4.23,0,0,1,.35-1.55l.26-.63L131,5.82q1.34-3.23,3.66-3.23a2.33,2.33,0,0,1,1.65.64A2.06,2.06,0,0,1,137,4.79,6.51,6.51,0,0,1,136.34,7Z" transform="translate(-4.24 -2.59)"/><path d="M140.44,51.94H143c2,0,2.95.68,2.95,2.06a2.66,2.66,0,0,1-1.06,2.24,4.65,4.65,0,0,1-2.9.81h-3a2.73,2.73,0,0,1-2.74-1.58,5.24,5.24,0,0,1-3.4,1.58H130.2A5.23,5.23,0,0,1,126,55.21a7.13,7.13,0,0,1-1.59-4.82,11.91,11.91,0,0,1,3.11-8,9.16,9.16,0,0,1,7-3.55A4.87,4.87,0,0,1,139,40.87,3.55,3.55,0,0,1,142,39.12a2.38,2.38,0,0,1,1.72.65,2.13,2.13,0,0,1,.7,1.62,4.28,4.28,0,0,1-.38,1.57l-.26.63Zm-8.51.11h.59a2.47,2.47,0,0,0,2.55-1.57l1.64-4a3.65,3.65,0,0,0,.33-1.34,1.37,1.37,0,0,0-.62-1.1,2.43,2.43,0,0,0-1.49-.47,4.47,4.47,0,0,0-3.33,2A6.48,6.48,0,0,0,130,49.64C130,51.25,130.63,52.05,131.93,52.05Z" transform="translate(-4.24 -2.59)"/><path d="M158.58,39.12h.73c2,0,3,.69,3,2.08a2.64,2.64,0,0,1-1.05,2.23,4.74,4.74,0,0,1-2.91.79h-1.71l-3.14,7.72h2.62c2,0,3,.69,3,2.08a2.66,2.66,0,0,1-1,2.23,4.74,4.74,0,0,1-2.92.8h-4.2a4.44,4.44,0,0,1-2.82-.83,2.67,2.67,0,0,1-1-2.22,5.22,5.22,0,0,1,.42-1.92l.44-1,2.77-6.83h-.35c-1.75,0-2.63-.67-2.63-2a2.71,2.71,0,0,1,1.05-2.27,4.62,4.62,0,0,1,2.91-.8h1.08L154,36.05l.25-.64a3.66,3.66,0,0,1,3.47-2.6,2.34,2.34,0,0,1,1.65.65,2,2,0,0,1,.7,1.55,5.85,5.85,0,0,1-.61,2.25Z" transform="translate(-4.24 -2.59)"/><path d="M167.81,51.94h2.65c2,0,2.95.69,2.95,2.08a2.64,2.64,0,0,1-1,2.23,4.72,4.72,0,0,1-2.92.8h-3.72a5.53,5.53,0,0,1-3.25-.85,2.67,2.67,0,0,1-1.18-2.3,5.35,5.35,0,0,1,.49-2l3.87-9.52.25-.66a3.64,3.64,0,0,1,3.47-2.64,2.4,2.4,0,0,1,1.7.65,2.06,2.06,0,0,1,.72,1.57,6.77,6.77,0,0,1-.64,2.3Zm3.1-20.3a3.18,3.18,0,0,1,2.31,1,3.14,3.14,0,0,1,.94,2.31,3.21,3.21,0,0,1-3.25,3.25,3.14,3.14,0,0,1-2.31-.94,3.18,3.18,0,0,1-.95-2.31,3.24,3.24,0,0,1,3.26-3.26Z" transform="translate(-4.24 -2.59)"/><path d="M182.11,45.51l-.45,1.08c-.68,1.55-1.66,2.32-2.92,2.32a2.53,2.53,0,0,1-1.73-.67,2,2,0,0,1-.76-1.53,5.32,5.32,0,0,1,.68-2.18l3.12-6.33c.76-1.51,1.72-2.27,2.86-2.27a2.25,2.25,0,0,1,1.57.6,1.86,1.86,0,0,1,.65,1.41,5.43,5.43,0,0,1-.14.92,5.36,5.36,0,0,0-.09.91,5.28,5.28,0,0,0,1.1,3l1.34,1.85a9.45,9.45,0,0,1,2,5.48,6.35,6.35,0,0,1-2.21,4.93,7.89,7.89,0,0,1-5.48,2h-4.9c-2,0-3-.69-3-2.07a2.66,2.66,0,0,1,1.06-2.24,4.71,4.71,0,0,1,2.9-.8h2.72c2.17,0,3.26-.79,3.26-2.37a4.52,4.52,0,0,0-.61-2Z" transform="translate(-4.24 -2.59)"/><path d="M202.78,39.12h.73c2,0,3,.69,3,2.08a2.65,2.65,0,0,1-1.06,2.23,4.72,4.72,0,0,1-2.91.79h-1.71l-3.14,7.72h2.63c2,0,3,.69,3,2.08a2.64,2.64,0,0,1-1,2.23,4.72,4.72,0,0,1-2.92.8h-4.19a4.45,4.45,0,0,1-2.83-.83,2.67,2.67,0,0,1-1-2.22,5.22,5.22,0,0,1,.42-1.92l.45-1,2.76-6.83h-.35c-1.75,0-2.62-.67-2.62-2a2.7,2.7,0,0,1,1-2.27,4.67,4.67,0,0,1,2.92-.8H197l1.24-3.07.26-.64a3.65,3.65,0,0,1,3.46-2.6,2.34,2.34,0,0,1,1.66.65,2,2,0,0,1,.69,1.55,5.68,5.68,0,0,1-.61,2.25Z" transform="translate(-4.24 -2.59)"/><path d="M212,51.94h2.64c2,0,3,.69,3,2.08a2.64,2.64,0,0,1-1.05,2.23,4.68,4.68,0,0,1-2.91.8h-3.73a5.55,5.55,0,0,1-3.25-.85,2.69,2.69,0,0,1-1.18-2.3,5.35,5.35,0,0,1,.49-2l3.87-9.52.26-.66c.72-1.76,1.87-2.64,3.47-2.64a2.43,2.43,0,0,1,1.7.65,2.08,2.08,0,0,1,.71,1.57,6.93,6.93,0,0,1-.63,2.3Zm3.09-20.3a3.24,3.24,0,0,1,3.26,3.26,3.18,3.18,0,0,1-1,2.31,3.31,3.31,0,0,1-4.62,0,3.18,3.18,0,0,1-1-2.31,3.24,3.24,0,0,1,3.26-3.26Z" transform="translate(-4.24 -2.59)"/><path d="M231.94,57.05h-6.8A6.09,6.09,0,0,1,220.37,55a7.73,7.73,0,0,1-1.84-5.34,10.79,10.79,0,0,1,3-7.62,9.43,9.43,0,0,1,7.1-3.23,6.52,6.52,0,0,1,4.5,1.54,5.19,5.19,0,0,1,1.73,4,4.47,4.47,0,0,1-.87,2.84,2.67,2.67,0,0,1-2.22,1.12c-1.44,0-2.16-.68-2.16-2V45.8a4.35,4.35,0,0,0,0-.5,1.44,1.44,0,0,0-1.61-1.64,3.54,3.54,0,0,0-2.78,1.62A5.72,5.72,0,0,0,224,48.89a2.62,2.62,0,0,0,1,2.35,6.31,6.31,0,0,0,3.45.7h4.43c2,0,3,.69,3,2.08a2.64,2.64,0,0,1-1.07,2.22A4.66,4.66,0,0,1,231.94,57.05Z" transform="translate(-4.24 -2.59)"/><path d="M244.57,45.51l-.44,1.08c-.69,1.55-1.67,2.32-2.93,2.32a2.55,2.55,0,0,1-1.73-.67,2,2,0,0,1-.76-1.53,5.32,5.32,0,0,1,.68-2.18l3.12-6.33c.76-1.51,1.72-2.27,2.86-2.27a2.25,2.25,0,0,1,1.57.6,1.82,1.82,0,0,1,.65,1.41,5.43,5.43,0,0,1-.14.92,5.36,5.36,0,0,0-.09.91,5.28,5.28,0,0,0,1.1,3l1.34,1.85a9.45,9.45,0,0,1,2,5.48,6.35,6.35,0,0,1-2.21,4.93,7.89,7.89,0,0,1-5.48,2h-4.9c-2,0-3-.69-3-2.07a2.68,2.68,0,0,1,1.06-2.24,4.72,4.72,0,0,1,2.91-.8H243c2.18,0,3.26-.79,3.26-2.37a4.52,4.52,0,0,0-.61-2Z" transform="translate(-4.24 -2.59)"/><path d="M170,15.84h.36c.86,0,1.3.3,1.3.91a1.19,1.19,0,0,1-.45,1,2,2,0,0,1-1.25.35H169l-1.89,4.6a5.84,5.84,0,0,1-5.76,4,4.92,4.92,0,0,1-3.61-1.35,4.79,4.79,0,0,1-1.37-3.56,5.62,5.62,0,0,1,.75-2.82,5.38,5.38,0,0,1,2-2,8.13,8.13,0,0,1,2.55-.81,3.32,3.32,0,0,1-.8-2.08,3.91,3.91,0,0,1,.55-2,4.29,4.29,0,0,1,1.45-1.54,6.58,6.58,0,0,1,3.61-.86h2.39c.87,0,1.3.3,1.3.9a1.19,1.19,0,0,1-.44,1,2,2,0,0,1-1.26.35h-2.13a3.79,3.79,0,0,0-2,.47,2.18,2.18,0,0,0-1.09,1.91,1.35,1.35,0,0,0,.58,1.14,2.61,2.61,0,0,0,1.59.43h2l.55-1.29.11-.27a1.54,1.54,0,0,1,1.44-1.1,1.05,1.05,0,0,1,.75.29.92.92,0,0,1,.3.7,2.83,2.83,0,0,1-.27,1Zm-3.51,2.25h-2.75a8,8,0,0,0-2.77.38,3.47,3.47,0,0,0-1.56,1.29,3.34,3.34,0,0,0-.61,1.92,2.6,2.6,0,0,0,.8,2,2.85,2.85,0,0,0,2.06.76,3.17,3.17,0,0,0,1.86-.6,3.56,3.56,0,0,0,1.26-1.58Z" transform="translate(-4.24 -2.59)"/></svg>