<svg id="Layer_1" data-name="Layer 1" xmlns="http://www.w3.org/2000/svg" viewBox="0 0 117.12 89.11"><defs><style>.cls-1{fill:#fff;}</style></defs><title>Department_Logo_mini</title><path class="cls-1" d="M70.22,50.37h5.7q4.89,0,4.89,3.34a4.47,4.47,0,0,1-1.71,3.73,7.63,7.63,0,0,1-4.8,1.33H67.62A9.06,9.06,0,0,1,62,57.24a5.21,5.21,0,0,1-2-4.37,15.56,15.56,0,0,1,1.48-5.35l9-21.16-6.78,7.28c-1.62,1.75-3.15,2.63-4.61,2.63q-2.84,0-3.69-3.9l-1-4.36L45.86,49.17A128,128,0,0,1,39.11,64a24.36,24.36,0,0,1-6,6.81,19.48,19.48,0,0,1-12.27,4.14,16.14,16.14,0,0,1-12-4.65q-4.61-4.67-4.6-12.15a24,24,0,0,1,7.24-17.26,29.21,29.21,0,0,1,9.74-6.42A29.57,29.57,0,0,1,32.71,32a7.79,7.79,0,0,1,4.61,1.23A3.82,3.82,0,0,1,39,36.52,4.12,4.12,0,0,1,37.21,40a8.84,8.84,0,0,1-4.08,1,26.72,26.72,0,0,0-11.28,3.2,16.4,16.4,0,0,0-5.64,5.59,13.66,13.66,0,0,0-2.1,7.21,9.17,9.17,0,0,0,2,6.31,7.08,7.08,0,0,0,5.59,2.3A9.49,9.49,0,0,0,29.14,62q3.15-3.63,6.91-12.85L50,14.83q1.83-4.54,4.92-4.54A4,4,0,0,1,58,11.56,11,11,0,0,1,60,16l2.14,8.08L72.72,13.7q3.48-3.4,6.5-3.41a5.19,5.19,0,0,1,3.57,1.29,4,4,0,0,1,1.46,3.11,6.84,6.84,0,0,1-.56,2.53l-.81,2Z" transform="translate(-4.24 -10.29)"/><path class="cls-1" d="M101.18,58.76l3.23,4.08,1.86,2.25q5.42,6.68,5.42,14.13a18.67,18.67,0,0,1-4.78,12.69q-6.54,7.5-17.12,7.49-8.21,0-13.43-5a17.14,17.14,0,0,1-5.24-12.92q0-9.64,8.15-16.07Q83.6,62,87.25,62a4.41,4.41,0,0,1,3.1,1.09,3.62,3.62,0,0,1,1.19,2.81q0,2.33-2.74,4L86,71.59a12.23,12.23,0,0,0-4,4.22,10.39,10.39,0,0,0-1.62,5.35,9.15,9.15,0,0,0,2.83,6.9,9.93,9.93,0,0,0,7.19,2.73,11.36,11.36,0,0,0,8.37-3.61,11.72,11.72,0,0,0,3.55-8.49,11.08,11.08,0,0,0-1.45-5.62,53.5,53.5,0,0,0-6.22-7.84,32.82,32.82,0,0,1-4.78-6.47H80.33c-3.24,0-4.85-1.11-4.85-3.34a4.46,4.46,0,0,1,1.7-3.74A7.7,7.7,0,0,1,82,50.36h6a16.42,16.42,0,0,1,6.37-11.52,21,21,0,0,1,13.57-4.55,14.17,14.17,0,0,1,9.68,3.27A10.72,10.72,0,0,1,121.36,46a11.78,11.78,0,0,1-6,10.62q-3.37,2.12-10.72,2.11ZM97,50.36h8.44q7.13,0,7.13-4.15a3,3,0,0,0-1.46-2.6,6.78,6.78,0,0,0-3.88-1A11.18,11.18,0,0,0,100.28,45,7.41,7.41,0,0,0,97,50.36Z" transform="translate(-4.24 -10.29)"/></svg>