<?xml version="1.0" standalone="no"?>
<!DOCTYPE svg PUBLIC "-//W3C//DTD SVG 20010904//EN"
 "http://www.w3.org/TR/2001/REC-SVG-20010904/DTD/svg10.dtd">
<svg version="1.0" xmlns="http://www.w3.org/2000/svg"
 width="100.000000pt" height="19.000000pt" viewBox="0 0 100.000000 19.000000"
 preserveAspectRatio="xMidYMid meet">
<metadata>
Created by potrace 1.15, written by Peter Selinger 2001-2017
</metadata>
<g transform="translate(0.000000,19.000000) scale(0.100000,-0.100000)"
fill="#000000" stroke="none">
<path d="M0 95 l0 -95 30 0 c28 0 30 3 30 35 0 28 4 35 20 35 16 0 20 -7 20
-35 0 -32 2 -35 30 -35 l30 0 0 95 0 95 -30 0 c-27 0 -30 -3 -30 -30 0 -23 -4
-30 -20 -30 -16 0 -20 7 -20 30 0 27 -3 30 -30 30 l-30 0 0 -95z"/>
<path d="M170 117 c0 -104 11 -117 101 -117 l69 0 0 95 0 95 -35 0 -35 0 0
-70 c0 -56 -3 -70 -15 -70 -12 0 -15 14 -15 70 l0 70 -35 0 -35 0 0 -73z"/>
<path d="M350 96 l0 -96 30 0 c29 0 30 2 30 43 l0 42 26 -42 c20 -35 31 -43
55 -43 l29 0 0 69 c0 67 0 68 25 63 24 -4 25 -8 25 -68 l0 -64 35 0 35 0 0 65
c0 58 2 65 20 65 16 0 20 7 20 30 l0 30 -110 0 -110 0 0 -42 0 -43 -23 40
c-18 32 -29 41 -55 43 l-32 3 0 -95z"/>
<path d="M690 95 l0 -95 70 0 c68 0 70 1 70 25 0 23 -4 25 -40 25 -22 0 -40 5
-40 10 0 6 16 10 35 10 32 0 35 2 35 29 0 27 -4 30 -37 34 l-38 4 43 1 c38 2
42 5 42 27 0 24 -2 25 -70 25 l-70 0 0 -95z"/>
<path d="M840 95 l0 -95 30 0 c27 0 30 3 30 30 0 23 4 30 20 30 16 0 20 -7 20
-30 0 -27 3 -30 30 -30 28 0 30 2 30 38 0 21 -5 43 -11 49 -8 8 -8 13 0 17 16
10 13 52 -5 70 -11 11 -35 16 -80 16 l-64 0 0 -95z"/>
</g>
</svg>
